<svg width="7" height="8" viewBox="0 0 7 8" fill="none" xmlns="http://www.w3.org/2000/svg">
<path fill-rule="evenodd" clip-rule="evenodd" d="M4 0.659424C4 0.383281 3.77614 0.159424 3.5 0.159424C3.22386 0.159424 3 0.383281 3 0.659424L3 3.15942H0.5C0.223857 3.15942 0 3.38328 0 3.65942C0 3.93557 0.223857 4.15942 0.5 4.15942H3L3 6.65942C3 6.93557 3.22386 7.15942 3.5 7.15942C3.77614 7.15942 4 6.93557 4 6.65942L4 4.15942H6.5C6.77614 4.15942 7 3.93557 7 3.65942C7 3.38328 6.77614 3.15942 6.5 3.15942H4L4 0.659424Z" fill="#7786D2"/>
</svg>
