<svg width="17" height="17" viewBox="0 0 17 17" fill="none" xmlns="http://www.w3.org/2000/svg">
<path fill-rule="evenodd" clip-rule="evenodd" d="M8.5 16.5867C12.9183 16.5867 16.5 13.0049 16.5 8.58667C16.5 4.16839 12.9183 0.58667 8.5 0.58667C4.08172 0.58667 0.5 4.16839 0.5 8.58667C0.5 13.0049 4.08172 16.5867 8.5 16.5867ZM12.2071 7.87956L9.20711 4.87956C8.81658 4.48904 8.18342 4.48904 7.79289 4.87956C7.40237 5.27009 7.40237 5.90325 7.79289 6.29378L9.08579 7.58667L5.5 7.58667C4.94772 7.58667 4.5 8.03438 4.5 8.58667C4.5 9.13895 4.94772 9.58667 5.5 9.58667H9.08579L7.79289 10.8796C7.40237 11.2701 7.40237 11.9033 7.79289 12.2938C8.18342 12.6843 8.81658 12.6843 9.20711 12.2938L12.2071 9.29378C12.5976 8.90325 12.5976 8.27009 12.2071 7.87956Z" fill="#374151"/>
</svg>
