<svg width="13" height="14" viewBox="0 0 13 14" fill="none" xmlns="http://www.w3.org/2000/svg">
<path d="M0.499999 7C0.499999 3.68629 3.18629 1 6.5 1C9.81371 1 12.5 3.68629 12.5 7C12.5 10.3137 9.81371 13 6.5 13C3.18629 13 0.499999 10.3137 0.499999 7Z" stroke="#7786D2"/>
<path fill-rule="evenodd" clip-rule="evenodd" d="M4.02514 8.61149C3.82988 8.80676 3.82988 9.12334 4.02514 9.3186C4.22041 9.51386 4.53699 9.51386 4.73225 9.3186L6.50003 7.55082L8.26778 9.31857C8.46305 9.51383 8.77963 9.51383 8.97489 9.31857C9.17015 9.1233 9.17015 8.80672 8.97489 8.61146L7.20714 6.84371L8.97489 5.07596C9.17015 4.8807 9.17015 4.56412 8.97489 4.36885C8.77963 4.17359 8.46305 4.17359 8.26778 4.36885L6.50003 6.1366L4.73225 4.36882C4.53699 4.17356 4.22041 4.17356 4.02514 4.36882C3.82988 4.56408 3.82988 4.88066 4.02514 5.07593L5.79293 6.84371L4.02514 8.61149Z" fill="#7786D2"/>
</svg>
