<svg width="17" height="17" viewBox="0 0 17 17" fill="none" xmlns="http://www.w3.org/2000/svg">
<path fill-rule="evenodd" clip-rule="evenodd" d="M8.5 16.5867C12.9183 16.5867 16.5 13.0049 16.5 8.58667C16.5 4.16839 12.9183 0.58667 8.5 0.58667C4.08172 0.58667 0.5 4.16839 0.5 8.58667C0.5 13.0049 4.08172 16.5867 8.5 16.5867ZM9.20711 6.29378C9.59763 5.90325 9.59763 5.27009 9.20711 4.87956C8.81658 4.48904 8.18342 4.48904 7.79289 4.87956L4.79289 7.87956C4.40237 8.27009 4.40237 8.90325 4.79289 9.29378L7.79289 12.2938C8.18342 12.6843 8.81658 12.6843 9.20711 12.2938C9.59763 11.9033 9.59763 11.2701 9.20711 10.8796L7.91421 9.58667H11.5C12.0523 9.58667 12.5 9.13895 12.5 8.58667C12.5 8.03439 12.0523 7.58667 11.5 7.58667L7.91421 7.58667L9.20711 6.29378Z" fill="#374151"/>
</svg>
