<svg width="12" height="17" viewBox="0 0 12 17" fill="none" xmlns="http://www.w3.org/2000/svg">
<path fill-rule="evenodd" clip-rule="evenodd" d="M1 6.04233C1 3.25393 3.24228 1 6.00027 1C8.75825 1 11.0005 3.25393 11.0005 6.04233C11.0005 6.69675 10.7306 7.59019 10.2677 8.60436C9.81108 9.60454 9.19199 10.6686 8.54961 11.6463C7.90762 12.6234 7.2496 13.5033 6.72063 14.1347C6.45516 14.4515 6.22887 14.6978 6.05792 14.8607C6.03733 14.8803 6.01811 14.8981 6.00026 14.9143C5.98241 14.8981 5.9632 14.8803 5.94262 14.8607C5.77166 14.6978 5.54537 14.4515 5.2799 14.1347C4.75093 13.5033 4.09291 12.6234 3.45093 11.6463C2.80854 10.6686 2.18945 9.60454 1.73286 8.60436C1.26988 7.59019 1 6.69675 1 6.04233ZM6.00027 0C2.68283 0 0 2.70884 0 6.04233C0 6.91838 0.345291 7.97284 0.823165 9.01964C1.30742 10.0804 1.95485 11.1904 2.61518 12.1954C3.2759 13.201 3.95677 14.1125 4.51337 14.7769C4.79068 15.1079 5.04385 15.3856 5.25283 15.5847C5.35626 15.6832 5.4591 15.7724 5.55582 15.8403C5.60408 15.8741 5.6608 15.9098 5.72303 15.9387C5.77827 15.9644 5.87745 16.0037 6.00027 16.0037C6.12308 16.0037 6.22226 15.9644 6.2775 15.9387C6.33973 15.9098 6.39645 15.8741 6.44471 15.8403C6.54143 15.7724 6.64427 15.6832 6.7477 15.5847C6.95669 15.3856 7.20985 15.1079 7.48716 14.7769C8.04376 14.1125 8.72463 13.201 9.38535 12.1954C10.0457 11.1904 10.6931 10.0804 11.1774 9.01964C11.6552 7.97284 12.0005 6.91838 12.0005 6.04233C12.0005 2.70884 9.31771 0 6.00027 0ZM6.00042 8.00189C7.01299 8.00189 7.83384 7.16222 7.83384 6.12643C7.83384 5.09065 7.01299 4.25098 6.00042 4.25098C4.98785 4.25098 4.167 5.09065 4.167 6.12643C4.167 7.16222 4.98785 8.00189 6.00042 8.00189Z" fill="#FF0000"/>
</svg>
