<?xml version="1.0" encoding="UTF-8" standalone="no"?>
<!-- Created with Inkscape (http://www.inkscape.org/) -->

<svg
   width="80.460442mm"
   height="82.788429mm"
   viewBox="0 0 80.460442 82.788429"
   version="1.1"
   id="svg5"
   xml:space="preserve"
   xmlns="http://www.w3.org/2000/svg"
   xmlns:svg="http://www.w3.org/2000/svg"><defs
     id="defs2" /><g
     id="layer1"
     transform="translate(105.73113,-253.34511)"><g
       aria-label="Travel Route"
       transform="matrix(1.0317849,-0.32494534,0.39719495,0.84410361,0,0)"
       id="text3994"
       style="font-weight:bold;font-size:11.2664px;font-family:'Inter',Roboto, Arial, Helvetica, sans-serif;;-inkscape-font-specification:''Inter',Roboto, Arial, Helvetica, sans-serif; Bold';stroke-width:1.04695;stroke-linecap:round;stroke-miterlimit:6.3;stroke-dashoffset:6.55445"><path
         id="path4988"
         style="fill:#7786d2;fill-opacity:1;stroke:#ffffff;stroke-width:2.198;stroke-linecap:round;stroke-miterlimit:4.3;stroke-dasharray:none"
         d="m -188.9352,274.98872 12.31283,-5.28047 -7.38004,-31.80221 8.48236,-3.77477 14.58668,23.9095 6.57524,9.96114 c 7.1804,-0.1332 14.69221,-1.30419 20.78468,1.96937 3.70867,2.69543 2.11808,5.8546 -0.24106,9.081 -6.34708,4.76946 -13.68426,5.92198 -20.88357,7.57811 l -5.01002,9.74132 -17.75357,31.17229 -8.04355,-2.04881 8.92886,-36.87264 -12.20765,0.1213 -10.64167,13.04515 -5.41833,-1.45263 5.03533,-17.26488 -4.42089,-14.87825 5.99713,-3.63182 z" /></g></g></svg>
