<svg width="13" height="14" viewBox="0 0 13 14" fill="none" xmlns="http://www.w3.org/2000/svg">
<path d="M12.5 6.50366C12.5 9.81737 9.81371 12.5037 6.5 12.5037C3.18629 12.5037 0.5 9.81737 0.5 6.50366C0.5 3.18995 3.18629 0.503662 6.5 0.503662C9.81371 0.503662 12.5 3.18995 12.5 6.50366Z" stroke="#7786D2"/>
<path fill-rule="evenodd" clip-rule="evenodd" d="M7 3.65942C7 3.38328 6.77614 3.15942 6.5 3.15942C6.22386 3.15942 6 3.38328 6 3.65942L6 6.15942H3.5C3.22386 6.15942 3 6.38328 3 6.65942C3 6.93557 3.22386 7.15942 3.5 7.15942H6L6 9.65942C6 9.93557 6.22386 10.1594 6.5 10.1594C6.77614 10.1594 7 9.93557 7 9.65942L7 7.15942H9.5C9.77614 7.15942 10 6.93557 10 6.65942C10 6.38328 9.77614 6.15942 9.5 6.15942H7L7 3.65942Z" fill="#7786D2"/>
</svg>
